<?xml version="1.0" standalone="no"?>
<!DOCTYPE svg PUBLIC "-//W3C//DTD SVG 20010904//EN"
 "http://www.w3.org/TR/2001/REC-SVG-20010904/DTD/svg10.dtd">
<svg version="1.0" xmlns="http://www.w3.org/2000/svg"
 width="456.000000pt" height="456.000000pt" viewBox="0 0 456.000000 456.000000"
 preserveAspectRatio="xMidYMid meet">
<metadata>
Created by potrace 1.11, written by Peter Selinger 2001-2013
</metadata>
<g transform="translate(0.000000,456.000000) scale(0.100000,-0.100000)"
fill="#000000" stroke="none">
<path d="M2764 4121 c-235 -60 -359 -324 -254 -538 97 -197 329 -275 523 -176
186 94 263 323 171 511 -61 125 -186 204 -329 208 -44 2 -94 -1 -111 -5z"/>
<path d="M1744 3429 c-16 -5 -147 -94 -289 -199 -288 -211 -305 -228 -305
-319 0 -100 65 -171 164 -179 36 -3 64 1 87 12 19 9 128 85 243 169 l208 153
126 -23 c69 -13 127 -25 129 -26 2 -2 -72 -160 -164 -350 -234 -481 -218 -443
-218 -513 0 -50 5 -69 28 -102 15 -23 43 -52 62 -65 19 -12 35 -25 35 -28 0
-7 -309 -580 -319 -591 -3 -4 -170 -21 -370 -38 -400 -34 -412 -36 -470 -106
-93 -113 -39 -287 102 -329 45 -13 83 -12 455 20 224 19 431 40 460 46 91 18
115 52 317 424 98 182 179 331 180 332 1 2 123 -79 271 -180 l269 -182 152
-415 c83 -228 160 -429 172 -447 33 -51 103 -86 170 -86 122 0 211 88 211 207
0 34 -42 162 -160 487 -89 243 -167 453 -175 468 -32 59 -105 117 -398 315
-169 114 -307 209 -307 211 0 15 266 535 273 532 4 -1 35 -35 70 -76 92 -110
126 -134 195 -139 52 -3 82 6 352 103 162 59 310 118 328 131 107 82 84 248
-43 305 -22 10 -54 19 -72 19 -18 0 -132 -36 -255 -80 -123 -44 -228 -79 -234
-78 -7 2 -50 50 -96 108 -73 91 -85 112 -91 155 -10 70 -60 168 -109 209 -86
74 -203 102 -314 76 -50 -12 -70 -10 -316 33 -271 48 -301 52 -354 36z"/>
</g>
</svg>
