<?xml version="1.0" encoding="utf-8"?><!DOCTYPE svg PUBLIC "-//W3C//DTD SVG 1.1//EN" "http://www.w3.org/Graphics/SVG/1.1/DTD/svg11.dtd"><svg version="1.1" xmlns:dc="http://purl.org/dc/elements/1.1/" xmlns:cc="http://creativecommons.org/ns#" xmlns:rdf="http://www.w3.org/1999/02/22-rdf-syntax-ns#" xmlns:svg="http://www.w3.org/2000/svg" xmlns:sodipodi="http://sodipodi.sourceforge.net/DTD/sodipodi-0.dtd" xmlns:inkscape="http://www.inkscape.org/namespaces/inkscape" xmlns="http://www.w3.org/2000/svg" xmlns:xlink="http://www.w3.org/1999/xlink" x="0px" y="0px" viewBox="-0.141 13.307 100 73.386" enable-background="new -0.141 13.307 100 73.386" xml:space="preserve"><style type="text/css">

	.st1{fill:#888888;}

</style><path class="st1" d="M96.651,20.601c-0.409-0.249-0.899-0.856-1.301-1.617c-0.63-1.188-0.67-1.222-1.587-1.33
	c-0.517-0.061-6.246-0.167-12.73-0.238L69.242,17.29l-0.533,0.423c-0.924,0.731-1.767,0.954-4.62,1.219
	c-2.23,0.207-2.909,0.343-3.467,0.697c-0.382,0.242-1.369,0.573-2.193,0.736c-0.825,0.163-2.39,0.704-3.477,1.203
	c-1.088,0.499-2.568,1.03-3.289,1.181c-1.278,0.268-1.325,0.263-1.874-0.186c-0.31-0.253-0.682-0.464-0.828-0.468
	s-0.993,0.313-1.883,0.705s-2.146,0.797-2.793,0.902c-0.647,0.104-1.434,0.341-1.749,0.526c-0.549,0.322-0.585,0.32-0.849-0.06
	c-0.152-0.218-0.368-0.504-0.482-0.636c-0.409-0.479-1.932-0.729-4.476-0.735l-2.588-0.006l-2.465,1.234
	c-2.194,1.099-2.595,1.234-3.642,1.234c-2.179-0.001-5.854-1.221-5.863-1.947c-0.019-1.421-0.624-4.521-1.129-5.782
	c-0.55-1.373-0.691-1.552-1.85-2.346c-1.317-0.903-1.386-0.914-3.307-0.517c-0.891,0.185-1.512-0.012-2.339-0.738l-0.709-0.623
	l-1.148,0.549c-0.934,0.446-1.225,0.508-1.561,0.328c-0.751-0.402-1.036-0.285-0.904,0.374c0.157,0.788-0.208,0.782-1.317-0.022
	c-0.828-0.6-0.848-0.604-0.724-0.148c0.341,1.251,0.37,2.55,0.074,3.29c-0.256,0.639-0.273,1.099-0.107,2.835
	c0.11,1.14,0.257,2.754,0.329,3.588c0.092,1.078,0.239,1.635,0.507,1.932c0.376,0.415,0.375,0.417-0.248,0.417H7.115v2.136
	c0,2.393-0.226,4.521-0.8,7.535c-0.227,1.194-0.389,2.88-0.389,4.06c0,2.265-1.022,13.442-1.508,16.49
	c-0.444,2.787-0.982,4.648-1.879,6.504c-0.491,1.017-0.774,1.881-0.774,2.369c0,1.022-0.707,3.849-1.37,5.474l-0.535,1.309
	l0.97,1.982l0.969,1.982L1.64,77.676c-0.431,3.788,0.168,6.456,1.802,8.026l0.722,0.693l40.565,0.1
	c22.31,0.056,42.371,0.122,44.578,0.149l4.013,0.049V71.315c0-15.101,0.008-15.402,0.421-16.76c0.29-0.956,0.391-1.696,0.323-2.393
	c-0.074-0.767-0.006-1.164,0.282-1.653c0.375-0.634,0.375-0.649,0.002-1.007c-0.209-0.2-0.479-0.558-0.604-0.795
	c-0.172-0.331-0.478-0.463-1.31-0.567c-0.596-0.074-1.182-0.251-1.299-0.394s-0.263-0.868-0.321-1.613
	c-0.095-1.194-0.047-1.466,0.399-2.294c0.28-0.517,0.785-1.608,1.126-2.424c0.445-1.071,0.827-1.65,1.363-2.075
	c0.894-0.708,1.89-2.745,1.733-3.547c-0.07-0.358,0.081-0.85,0.473-1.536c0.317-0.555,0.939-2.071,1.386-3.369
	c0.445-1.298,1.205-3.105,1.687-4.017c0.506-0.955,0.878-1.924,0.878-2.286C99.859,23.188,98.847,21.93,96.651,20.601z"></path></svg>
