<svg xmlns="http://www.w3.org/2000/svg" xmlns:xlink="http://www.w3.org/1999/xlink" version="1.1" x="0px" y="0px" viewBox="0 0 109 109" style="enable-background:new 0 0 109 109;" xml:space="preserve"><style type="text/css">

	.st0{fill:#fd0a00;}

</style><path class="st0" d="M61.698,17.765c0.952-4.956,5.739-8.201,10.694-7.247c4.955,0.952,8.196,5.738,7.244,10.694  c-0.951,4.953-5.736,8.198-10.692,7.246C63.989,27.506,60.745,22.718,61.698,17.765z M90.13,40.749  c-0.829-2.258-3.333-3.417-5.592-2.587l-10.042,3.651l-4.252-5.358c0.052-3.009-1.607-5.92-4.498-7.311  c-2.142-1.029-4.515-1.006-6.545-0.146l-11.902-2.128c-0.384-0.068-0.762-0.064-1.132-0.033c-1.026-0.09-2.086,0.164-2.978,0.827  l-11.035,8.153c-1.932,1.433-2.332,4.163-0.898,6.095c1.436,1.93,4.163,2.331,6.098,0.897l9.663-7.137l6.191,1.108l-7.519,15.248  c-0.309,0.642-0.515,1.305-0.641,1.973c-0.077,0.096-0.167,0.178-0.238,0.282c-1.561,2.285-0.973,5.403,1.312,6.961l0.922,0.63  l-7.617,14.142l-16.28,1.382c-2.754,0.256-4.778,2.699-4.521,5.453c0.258,2.757,2.7,4.78,5.456,4.521l18.011-1.53  c0.276-0.026,0.54-0.089,0.8-0.157c1.675-0.102,3.26-1.027,4.114-2.615l8.354-15.508l12.663,8.661l6.961,19.292  c0.979,2.591,3.873,3.89,6.46,2.908c2.586-0.982,3.888-3.876,2.904-6.464l-7.3-20.24c-0.313-0.822-0.833-1.497-1.46-2.028  c-0.344-0.506-0.777-0.964-1.314-1.331L60.13,58.686l6.375-12.926l2.613,3.292c0.214,0.269,0.459,0.497,0.718,0.7  c1.149,1.35,3.048,1.923,4.81,1.278l12.895-4.691C89.797,45.51,90.957,43.007,90.13,40.749z"></path></svg>
